<svg width="1440" height="1024" viewBox="0 0 1440 1024" fill="none" xmlns="http://www.w3.org/2000/svg">
<g clip-path="url(#clip0_89_167)">
<rect width="1440" height="1024" fill="#222222"/>
<path opacity="0.7" d="M69.8181 861.313C82.3924 861.313 93.9361 864.199 104.449 869.971C114.756 875.743 123.105 884.607 129.495 896.563C135.885 908.519 139.08 923.361 139.08 941.088L139.08 973.864L217 973.864L217 1026.74L-0.0624213 1026.74L-0.0624203 941.088C-0.0624201 923.773 2.92657 909.137 8.90454 897.181C14.8825 885.225 23.128 876.258 33.641 870.28C44.154 864.302 56.213 861.313 69.8181 861.313ZM97.0282 945.108C97.0282 935.007 94.6576 927.483 89.9164 922.536C85.1753 917.589 78.4758 915.115 69.8181 915.115C61.1603 915.115 54.4609 917.589 49.7197 922.536C44.9786 927.483 42.608 935.007 42.608 945.108L42.608 973.864L97.0282 973.864L97.0282 945.108ZM178.658 698.664L178.658 779.676L217 792.662L217 848.01L-0.0624182 769.472L-0.0624175 708.249L217 629.711L217 685.677L178.658 698.664ZM137.843 712.269L58.3775 739.17L137.843 765.761L137.843 712.269ZM217 495.112L135.06 540.256L135.06 552.934L217 552.934L217 605.808L-0.0624163 605.808L-0.0624152 517.066C-0.062415 499.956 2.92657 485.424 8.90455 473.468C14.8825 461.306 23.128 452.236 33.641 446.258C43.9479 440.28 55.4915 437.291 68.272 437.291C82.7017 437.291 95.5852 441.413 106.923 449.659C118.26 457.698 126.3 469.654 131.041 485.527L217 435.436L217 495.112ZM97.6466 552.934L97.6466 520.158C97.6466 510.469 95.276 503.255 90.5349 498.514C85.7937 493.566 79.0942 491.093 70.4365 491.093C62.191 491.093 55.6977 493.566 50.9565 498.513C46.2154 503.255 43.8448 510.469 43.8448 520.158L43.8448 552.934L97.6466 552.934ZM-0.0624132 351.225L217 351.225L217 404.099L-0.0624139 404.099L-0.0624132 351.225ZM-0.0624109 156.759L42.2988 156.759L42.2988 214.271L217 214.271L217 267.145L42.2988 267.145L42.2988 324.658L-0.0624129 324.658L-0.0624109 156.759ZM42.2988 77.3487L86.206 77.3487L86.206 6.54064L127.021 6.54064L127.021 77.3487L174.639 77.3487L174.639 -2.73554L217 -2.73554L217 130.223L-0.0624106 130.223L-0.062409 -2.73554L42.2988 -2.73554L42.2988 77.3487ZM-43.6604 29.1126L-12.4306 103.631L-48.9169 103.631L-84.7848 29.1126L-43.6604 29.1126Z" fill="#353535"/>
<path opacity="0.7" d="M560.194 220.031C560.194 229.854 557.939 238.871 553.431 247.083C548.922 255.134 541.998 261.655 532.659 266.647C523.32 271.638 511.727 274.134 497.879 274.134H472.277V335H430.975V165.446H497.879C511.405 165.446 522.837 167.78 532.176 172.45C541.515 177.12 548.52 183.56 553.189 191.772C557.859 199.984 560.194 209.404 560.194 220.031ZM494.739 241.286C502.629 241.286 508.506 239.434 512.371 235.731C516.235 232.027 518.167 226.794 518.167 220.031C518.167 213.269 516.235 208.035 512.371 204.332C508.506 200.629 502.629 198.777 494.739 198.777H472.277V241.286H494.739ZM687.244 305.05H623.963L613.819 335H570.585L631.934 165.446L679.757 165.446L741.106 335H697.389L687.244 305.05ZM676.617 273.168L655.604 211.095L634.832 273.168H676.617ZM846.245 335L810.982 270.994H801.079V335H759.777V165.446H829.096C842.461 165.446 853.813 167.78 863.152 172.45C872.652 177.12 879.737 183.56 884.407 191.772C889.076 199.823 891.411 208.841 891.411 218.824C891.411 230.095 888.191 240.159 881.75 249.015C875.47 257.871 866.131 264.151 853.733 267.855L892.86 335L846.245 335ZM801.079 241.769H826.681C834.249 241.769 839.885 239.917 843.588 236.214C847.453 232.511 849.385 227.277 849.385 220.515C849.385 214.074 847.453 209.002 843.588 205.298C839.885 201.595 834.249 199.743 826.681 199.743H801.079V241.769Z" fill="#353535"/>
<path opacity="0.7" d="M464.797 80L449.572 52.3662H445.297V80H427.465V6.79647L457.393 6.79647C463.163 6.79647 468.064 7.80449 472.096 9.82054C476.198 11.8366 479.257 14.6174 481.273 18.1628C483.289 21.6388 484.297 25.5318 484.297 29.842C484.297 34.7084 482.907 39.0533 480.126 42.8768C477.415 46.7004 473.383 49.4116 468.03 51.0106L484.923 80L464.797 80ZM445.297 39.7485H456.35C459.618 39.7485 462.051 38.949 463.65 37.3501C465.318 35.7511 466.153 33.4918 466.153 30.572C466.153 27.7912 465.318 25.6014 463.65 24.0024C462.051 22.4035 459.618 21.604 456.35 21.604H445.297V39.7485ZM513.322 21.0826V35.8902L537.202 35.8902V49.6549L513.322 49.6549V65.7138H540.33V80H495.491V6.79647L540.33 6.79647V21.0826L513.322 21.0826ZM607.696 30.3634C607.696 34.6041 606.723 38.4971 604.776 42.0426C602.83 45.5186 599.84 48.3341 595.808 50.4892C591.776 52.6443 586.771 53.7218 580.792 53.7218H569.739V80L551.907 80V6.79647L580.792 6.79647C586.632 6.79647 591.568 7.80449 595.6 9.82054C599.632 11.8366 602.656 14.6174 604.672 18.1628C606.688 21.7083 607.696 25.7752 607.696 30.3634ZM579.437 39.5399C582.843 39.5399 585.38 38.7405 587.049 37.1415C588.717 35.5426 589.552 33.2832 589.552 30.3634C589.552 27.4436 588.717 25.1842 587.049 23.5853C585.38 21.9864 582.843 21.1869 579.437 21.1869L569.739 21.1869V39.5399L579.437 39.5399ZM654.311 80L639.086 52.3662H634.811V80H616.979V6.79647L646.907 6.79647C652.677 6.79647 657.578 7.80449 661.611 9.82054C665.712 11.8366 668.771 14.6174 670.787 18.1628C672.803 21.6388 673.811 25.5318 673.811 29.842C673.811 34.7084 672.421 39.0533 669.64 42.8768C666.929 46.7004 662.897 49.4116 657.544 51.0106L674.437 80H654.311ZM634.811 39.7485H645.864C649.132 39.7485 651.565 38.949 653.164 37.3501C654.832 35.7511 655.667 33.4918 655.667 30.572C655.667 27.7912 654.832 25.6014 653.164 24.0024C651.565 22.4035 649.132 21.604 645.864 21.604H634.811V39.7485ZM702.836 21.0826V35.8902L726.716 35.8902V49.6549L702.836 49.6549V65.7138H729.844V80H685.005V6.79647L729.844 6.79647V21.0826L702.836 21.0826ZM767.908 80.7299C762.555 80.7299 757.758 79.861 753.517 78.123C749.277 76.385 745.87 73.8128 743.298 70.4064C740.795 66.9999 739.475 62.8983 739.335 58.1015H758.314C758.592 60.8127 759.531 62.8983 761.13 64.3582C762.729 65.7486 764.814 66.4438 767.386 66.4438C770.028 66.4438 772.114 65.8529 773.643 64.6711C775.173 63.4197 775.937 61.7165 775.937 59.5614C775.937 57.7539 775.312 56.2593 774.06 55.0774C772.878 53.8956 771.384 52.9223 769.576 52.1576C767.838 51.3929 765.336 50.5239 762.068 49.5507C757.341 48.0908 753.483 46.6309 750.493 45.171C747.504 43.7111 744.932 41.556 742.777 38.7057C740.622 35.8554 739.544 32.1362 739.544 27.5479C739.544 20.735 742.012 15.4168 746.948 11.5933C751.884 7.70021 758.314 5.75368 766.239 5.75368C774.304 5.75368 780.804 7.70021 785.739 11.5933C790.675 15.4168 793.317 20.7698 793.665 27.6522H774.373C774.234 25.2885 773.365 23.4463 771.766 22.1254C770.167 20.735 768.116 20.0398 765.614 20.0398C763.459 20.0398 761.721 20.6308 760.4 21.8126C759.079 22.9249 758.418 24.5586 758.418 26.7137C758.418 29.0773 759.531 30.9196 761.755 32.2404C763.98 33.5613 767.456 34.9864 772.183 36.5158C776.911 38.1148 780.734 39.6442 783.654 41.1041C786.643 42.564 789.215 44.6843 791.37 47.4651C793.526 50.2459 794.603 53.8261 794.603 58.2058C794.603 62.3769 793.526 66.1657 791.37 69.5721C789.285 72.9786 786.226 75.6898 782.194 77.7059C778.162 79.7219 773.4 80.7299 767.908 80.7299ZM823.408 21.0826V35.8902L847.288 35.8902V49.6549L823.408 49.6549V65.7138H850.417V80L805.577 80V6.79647L850.417 6.79647V21.0826L823.408 21.0826Z" fill="#494949"/>
<path opacity="0.7" d="M492.952 158H475.121L445.297 112.847V158H427.465V84.7965H445.297L475.121 130.158V84.7965H492.952V158ZM558.538 84.7965V99.0826L539.143 99.0826V158H521.311V99.0826H501.915V84.7965L558.538 84.7965ZM613.057 145.069H585.736L581.357 158H562.691L589.178 84.7965H609.825L636.312 158H617.437L613.057 145.069ZM608.469 131.305L599.397 104.505L590.429 131.305H608.469ZM697.033 84.7965V99.0826H677.638V158H659.806V99.0826L640.41 99.0826V84.7965L697.033 84.7965ZM723.814 84.7965V158H705.983V84.7965H723.814ZM771.357 158.73C764.475 158.73 758.149 157.131 752.378 153.933C746.678 150.735 742.124 146.286 738.718 140.585C735.381 134.815 733.713 128.35 733.713 121.19C733.713 114.029 735.381 107.599 738.718 101.898C742.124 96.1976 746.678 91.7484 752.378 88.5505C758.149 85.3526 764.475 83.7537 771.357 83.7537C778.24 83.7537 784.531 85.3526 790.232 88.5505C796.002 91.7484 800.52 96.1976 803.788 101.898C807.125 107.599 808.793 114.029 808.793 121.19C808.793 128.35 807.125 134.815 803.788 140.585C800.451 146.286 795.932 150.735 790.232 153.933C784.531 157.131 778.24 158.73 771.357 158.73ZM771.357 142.462C777.197 142.462 781.855 140.516 785.33 136.623C788.876 132.73 790.649 127.585 790.649 121.19C790.649 114.724 788.876 109.58 785.33 105.756C781.855 101.863 777.197 99.9169 771.357 99.9169C765.448 99.9169 760.721 101.829 757.175 105.652C753.699 109.476 751.961 114.655 751.961 121.19C751.961 127.655 753.699 132.834 757.175 136.727C760.721 140.551 765.448 142.462 771.357 142.462ZM884.2 158H866.369L836.545 112.847V158H818.713V84.7965H836.545L866.369 130.158V84.7965H884.2V158Z" fill="#494949"/>
<path opacity="0.7" d="M1365.18 866.313C1352.61 866.313 1341.06 869.199 1330.55 874.971C1320.24 880.743 1311.9 889.607 1305.51 901.563C1299.11 913.519 1295.92 928.361 1295.92 946.088L1295.92 978.864L1218 978.864L1218 1031.74L1435.06 1031.74L1435.06 946.088C1435.06 928.773 1432.07 914.137 1426.1 902.181C1420.12 890.225 1411.87 881.258 1401.36 875.28C1390.85 869.302 1378.79 866.313 1365.18 866.313ZM1337.97 950.108C1337.97 940.007 1340.34 932.483 1345.08 927.536C1349.82 922.589 1356.52 920.115 1365.18 920.115C1373.84 920.115 1380.54 922.589 1385.28 927.536C1390.02 932.483 1392.39 940.007 1392.39 950.108L1392.39 978.864L1337.97 978.864L1337.97 950.108ZM1256.34 703.664L1256.34 784.676L1218 797.662L1218 853.01L1435.06 774.472L1435.06 713.249L1218 634.711L1218 690.677L1256.34 703.664ZM1297.16 717.269L1376.62 744.17L1297.16 770.761L1297.16 717.269ZM1218 500.112L1299.94 545.256L1299.94 557.934L1218 557.934L1218 610.808L1435.06 610.808L1435.06 522.066C1435.06 504.956 1432.07 490.424 1426.1 478.468C1420.12 466.306 1411.87 457.236 1401.36 451.258C1391.05 445.28 1379.51 442.291 1366.73 442.291C1352.3 442.291 1339.41 446.413 1328.08 454.659C1316.74 462.698 1308.7 474.654 1303.96 490.527L1218 440.436L1218 500.112ZM1337.35 557.934L1337.35 525.158C1337.35 515.469 1339.72 508.255 1344.47 503.514C1349.21 498.566 1355.91 496.093 1364.56 496.093C1372.81 496.093 1379.3 498.566 1384.04 503.513C1388.78 508.255 1391.16 515.469 1391.16 525.158L1391.16 557.934L1337.35 557.934ZM1435.06 356.225L1218 356.225L1218 409.099L1435.06 409.099L1435.06 356.225ZM1435.06 161.759L1392.7 161.759L1392.7 219.271L1218 219.271L1218 272.145L1392.7 272.145L1392.7 329.658L1435.06 329.658L1435.06 161.759ZM1392.7 82.3487L1348.79 82.3487L1348.79 11.5406L1307.98 11.5406L1307.98 82.3487L1260.36 82.3487L1260.36 2.26446L1218 2.26446L1218 135.223L1435.06 135.223L1435.06 2.26446L1392.7 2.26446L1392.7 82.3487ZM1478.66 34.1126L1447.43 108.631L1483.92 108.631L1519.78 34.1126L1478.66 34.1126Z" fill="#353535"/>
<path opacity="0.7" d="M353.185 823.319V864.283H267.669V908.536H331.656V948.304H267.669V1033.22H216.538V823.319H353.185ZM431.188 864.283V906.742H499.661V946.211H431.188V992.258H508.631L508.631 1033.22H380.058V823.319H508.631V864.283H431.188ZM779.536 823.319V1033.22H728.406V907.34L681.461 1033.22H640.199L592.955 907.041V1033.22H541.825V823.319H602.225L661.129 968.637L719.435 823.319H779.536ZM1054.01 823.319V1033.22H1002.88V907.34L955.94 1033.22H914.677L867.434 907.041V1033.22H816.304V823.319H876.704L935.608 968.637L993.914 823.319H1054.01ZM1141.91 864.283V906.742H1210.39V946.211H1141.91V992.258H1219.36V1033.22H1090.78V823.319H1219.36V864.283H1141.91Z" fill="#353535"/>
<path opacity="0.7" d="M401.747 538.371V560.742H355.046V584.908H389.99V606.626H355.046V653H327.124V538.371H401.747ZM444.345 560.742V583.929H481.738V605.483H444.345V630.629H486.637V653H416.423V538.371H486.637V560.742H444.345ZM634.58 538.371V653H606.657V584.255L581.021 653H558.487L532.687 584.092V653H504.765L504.765 538.371H537.749L569.917 617.73L601.758 538.371H634.58ZM784.474 538.371V653H756.551V584.255L730.915 653H708.381L682.581 584.092V653H654.659V538.371H687.643L719.811 617.73L751.653 538.371H784.474ZM832.476 560.742V583.929H869.869V605.483H832.476V630.629H874.768V653H804.553V538.371H874.768V560.742H832.476Z" fill="#353535"/>
<path opacity="0.7" d="M326.981 448.903L425 448.903L425 472.78L384.647 472.78L384.647 509.921L425 509.921L425 533.798L326.981 533.798L326.981 509.921L365.379 509.921L365.379 472.78L326.981 472.78L326.981 448.903ZM425.977 385.31C425.977 394.526 423.836 402.996 419.554 410.722C415.273 418.356 409.315 424.453 401.682 429.014C393.956 433.482 385.299 435.716 375.711 435.716C366.123 435.716 357.513 433.482 349.88 429.014C342.247 424.453 336.289 418.356 332.007 410.722C327.725 402.996 325.584 394.526 325.584 385.31C325.584 376.095 327.725 367.67 332.007 360.037C336.289 352.311 342.247 346.261 349.88 341.886C357.513 337.417 366.123 335.183 375.711 335.183C385.299 335.183 393.956 337.417 401.682 341.886C409.315 346.354 415.273 352.404 419.554 360.037C423.836 367.67 425.977 376.095 425.977 385.31ZM404.195 385.31C404.195 377.491 401.589 371.254 396.376 366.6C391.163 361.852 384.275 359.479 375.711 359.479C367.054 359.479 360.166 361.852 355.046 366.6C349.833 371.254 347.227 377.491 347.227 385.31C347.227 393.222 349.787 399.552 354.906 404.3C360.026 408.954 366.961 411.281 375.711 411.281C384.368 411.281 391.303 408.954 396.516 404.3C401.635 399.552 404.195 393.222 404.195 385.31ZM326.981 210.895L425 210.895L425 234.772L366.216 234.772L425 256.693L425 275.962L366.077 298.024L425 298.024L425 321.9L326.981 321.9L326.981 293.695L394.84 266.188L326.981 238.961L326.981 210.895ZM326.981 82.7203L425 82.7203L425 106.597L366.216 106.597L425 128.519L425 147.787L366.077 169.849L425 169.849L425 193.725L326.981 193.725L326.981 165.52L394.84 138.013L326.981 110.786L326.981 82.7203ZM346.11 41.6739L365.937 41.6739L365.937 9.69887L384.368 9.69887L384.368 41.6739L405.871 41.6739L405.871 5.51001L425 5.51001L425 65.5504L326.981 65.5504L326.981 5.51001L346.11 5.51001L346.11 41.6739Z" fill="#353535"/>
<path opacity="0.7" d="M520.551 340.981V439H496.675L496.675 398.647H459.534L459.534 439H435.657L435.657 340.981H459.534V379.379H496.675V340.981H520.551ZM584.145 439.977C574.929 439.977 566.458 437.836 558.732 433.554C551.099 429.273 545.002 423.315 540.441 415.682C535.973 407.956 533.739 399.299 533.739 389.711C533.739 380.123 535.973 371.513 540.441 363.88C545.002 356.247 551.099 350.289 558.732 346.007C566.458 341.725 574.929 339.584 584.145 339.584C593.36 339.584 601.784 341.725 609.417 346.007C617.143 350.289 623.194 356.247 627.569 363.88C632.037 371.513 634.271 380.123 634.271 389.711C634.271 399.299 632.037 407.956 627.569 415.682C623.101 423.315 617.05 429.273 609.417 433.554C601.784 437.836 593.36 439.977 584.145 439.977ZM584.145 418.195C591.964 418.195 598.2 415.589 602.855 410.376C607.602 405.163 609.976 398.275 609.976 389.711C609.976 381.054 607.602 374.166 602.855 369.046C598.2 363.833 591.964 361.227 584.145 361.227C576.232 361.227 569.902 363.787 565.155 368.906C560.501 374.026 558.174 380.961 558.174 389.711C558.174 398.368 560.501 405.303 565.155 410.516C569.902 415.635 576.232 418.195 584.145 418.195ZM758.559 340.981V439H734.683V380.216L712.761 439H693.492L671.431 380.077V439H647.555V340.981H675.76L703.266 408.84L730.494 340.981H758.559ZM886.734 340.981V439L862.858 439V380.216L840.936 439H821.667L799.606 380.077V439H775.729L775.729 340.981H803.934L831.441 408.84L858.669 340.981L886.734 340.981Z" fill="#353535"/>
<path opacity="0.7" d="M902.817 513.21L1065 513.21L1065 552.716L998.233 552.716L998.233 614.17L1065 614.17L1065 653.676L902.818 653.676L902.818 614.17L966.351 614.17L966.351 552.716L902.817 552.716L902.817 513.21ZM1066.62 407.989C1066.62 423.237 1063.07 437.253 1055.99 450.037C1048.9 462.666 1039.05 472.755 1026.42 480.301C1013.63 487.694 999.311 491.391 983.447 491.391C967.583 491.391 953.336 487.694 940.706 480.301C928.077 472.755 918.219 462.666 911.135 450.037C904.05 437.253 900.507 423.237 900.507 407.989C900.507 392.741 904.05 378.803 911.135 366.173C918.219 353.389 928.077 343.378 940.706 336.139C953.336 328.746 967.583 325.05 983.447 325.05C999.311 325.05 1013.63 328.746 1026.42 336.139C1039.05 343.532 1048.9 353.543 1055.99 366.173C1063.07 378.803 1066.62 392.741 1066.62 407.989ZM1030.58 407.989C1030.58 395.052 1026.26 384.732 1017.64 377.031C1009.01 369.176 997.616 365.249 983.447 365.249C969.123 365.249 957.725 369.176 949.254 377.031C940.629 384.732 936.317 395.052 936.317 407.989C936.317 421.081 940.552 431.554 949.023 439.409C957.494 447.11 968.969 450.961 983.447 450.961C997.77 450.961 1009.24 447.11 1017.87 439.409C1026.34 431.554 1030.58 421.081 1030.58 407.989ZM902.817 119.403L1065 119.403L1065 158.909L967.737 158.909L1065 195.181L1065 227.063L967.506 263.565L1065 263.565L1065 303.071L902.817 303.071L902.817 256.403L1015.1 210.891L902.817 165.84L902.817 119.403ZM902.817 -92.6744L1065 -92.6744L1065 -53.1684L967.737 -53.1684L1065 -16.8968L1065 14.9852L967.506 51.4878L1065 51.4878L1065 90.9938L902.817 90.9938L902.817 44.3259L1015.1 -1.18685L902.817 -46.2375L902.817 -92.6744ZM934.468 -160.59L967.275 -160.59L967.275 -213.495L997.77 -213.495L997.77 -160.59L1033.35 -160.59L1033.35 -220.426L1065 -220.426L1065 -121.084L902.817 -121.084L902.817 -220.426L934.468 -220.426L934.468 -160.59Z" fill="#353535"/>
<path opacity="0.7" d="M1216 575.004L1164.78 603.223L1164.78 611.147L1216 611.147L1216 644.198L1080.32 644.198L1080.32 588.727C1080.32 578.032 1082.19 568.948 1085.92 561.474C1089.66 553.872 1094.81 548.202 1101.38 544.466C1107.83 540.729 1115.04 538.861 1123.03 538.861C1132.05 538.861 1140.11 541.438 1147.19 546.592C1154.28 551.617 1159.3 559.091 1162.27 569.012L1216 537.701L1216 575.004ZM1141.39 611.147L1141.39 590.66C1141.39 584.604 1139.91 580.094 1136.95 577.13C1133.98 574.038 1129.8 572.491 1124.38 572.491C1119.23 572.491 1115.17 574.038 1112.21 577.13C1109.24 580.094 1107.76 584.604 1107.76 590.66L1107.76 611.147L1141.39 611.147ZM1192.03 433.649L1192.03 484.289L1216 492.407L1216 527.004L1080.32 477.911L1080.32 439.641L1216 390.548L1216 425.532L1192.03 433.649ZM1166.52 442.154L1116.85 458.969L1166.52 475.591L1166.52 442.154ZM1080.32 324.774C1080.32 310.471 1083.15 297.972 1088.82 287.277C1094.49 276.582 1102.48 268.336 1112.79 262.537C1122.97 256.61 1134.76 253.646 1148.16 253.646C1161.43 253.646 1173.22 256.61 1183.53 262.537C1193.84 268.336 1201.83 276.647 1207.5 287.47C1213.17 298.165 1216 310.6 1216 324.774L1216 375.606L1080.32 375.606L1080.32 324.774ZM1187.39 326.9C1187.39 314.401 1183.98 304.672 1177.15 297.714C1170.32 290.756 1160.66 287.277 1148.16 287.277C1135.66 287.277 1125.93 290.756 1118.97 297.714C1112.02 304.672 1108.54 314.401 1108.54 326.9L1108.54 342.555L1187.39 342.555L1187.39 326.9ZM1080.32 202.125L1216 202.125L1216 235.176L1080.32 235.176L1080.32 202.125ZM1217.35 114.004C1217.35 126.761 1214.39 138.486 1208.46 149.181C1202.53 159.747 1194.29 168.187 1183.72 174.501C1173.03 180.686 1161.04 183.778 1147.77 183.778C1134.5 183.778 1122.58 180.686 1112.02 174.501C1101.45 168.187 1093.2 159.747 1087.28 149.181C1081.35 138.486 1078.38 126.761 1078.38 114.004C1078.38 101.248 1081.35 89.5864 1087.28 79.0203C1093.2 68.3255 1101.45 59.95 1112.02 53.8939C1122.58 47.7089 1134.5 44.6164 1147.77 44.6164C1161.04 44.6164 1173.03 47.7089 1183.72 53.8939C1194.29 60.0789 1202.53 68.4543 1208.46 79.0203C1214.39 89.5864 1217.35 101.248 1217.35 114.004ZM1187.2 114.004C1187.2 103.18 1183.59 94.5472 1176.38 88.1045C1169.16 81.533 1159.63 78.2472 1147.77 78.2472C1135.79 78.2472 1126.25 81.533 1119.17 88.1045C1111.95 94.5472 1108.34 103.18 1108.34 114.004C1108.34 124.957 1111.89 133.719 1118.97 140.29C1126.06 146.733 1135.66 149.954 1147.77 149.954C1159.76 149.954 1169.35 146.733 1176.57 140.29C1183.66 133.719 1187.2 124.957 1187.2 114.004Z" fill="#353535"/>
<path opacity="0.7" d="M274.547 819.066C265.594 819.066 257.631 817.129 250.659 813.256C243.6 809.382 238.133 804.001 234.259 797.115C230.299 790.142 228.32 782.265 228.32 773.484C228.32 762.724 231.16 753.513 236.842 745.851C242.524 738.19 250.271 733.067 260.085 730.485L260.085 754.761C256.297 756.569 253.413 759.151 251.433 762.509C249.453 765.78 248.463 769.524 248.463 773.743C248.463 780.543 250.831 786.053 255.565 790.271C260.3 794.489 266.627 796.598 274.547 796.598C282.467 796.598 288.794 794.489 293.529 790.271C298.264 786.053 300.631 780.543 300.631 773.743C300.631 769.524 299.641 765.78 297.661 762.509C295.681 759.151 292.797 756.569 289.009 754.761L289.009 730.485C298.823 733.067 306.571 738.19 312.252 745.851C317.848 753.513 320.646 762.724 320.646 773.484C320.646 782.265 318.709 790.142 314.835 797.115C310.875 804.001 305.409 809.382 298.436 813.256C291.463 817.129 283.5 819.066 274.547 819.066ZM320.904 674.093C320.904 682.615 318.924 690.449 314.964 697.594C311.004 704.653 305.495 710.291 298.436 714.509C291.291 718.642 283.285 720.708 274.418 720.708C265.551 720.708 257.588 718.642 250.529 714.509C243.47 710.291 237.961 704.653 234.001 697.594C230.041 690.449 228.061 682.615 228.061 674.093C228.061 665.57 230.041 657.779 234.001 650.721C237.961 643.575 243.47 637.98 250.529 633.934C257.588 629.802 265.551 627.736 274.418 627.736C283.285 627.736 291.291 629.802 298.436 633.934C305.495 638.066 311.004 643.662 314.964 650.721C318.924 657.779 320.904 665.57 320.904 674.093ZM300.76 674.093C300.76 666.861 298.35 661.094 293.529 656.79C288.708 652.399 282.338 650.204 274.418 650.204C266.412 650.204 260.042 652.399 255.307 656.79C250.486 661.094 248.076 666.861 248.076 674.093C248.076 681.41 250.443 687.264 255.178 691.654C259.913 695.958 266.326 698.11 274.418 698.11C282.424 698.11 288.837 695.958 293.658 691.654C298.393 687.264 300.76 681.41 300.76 674.093ZM320 534.36L320 556.44L264.088 593.371L320 593.371L320 615.452L229.353 615.452L229.353 593.371L285.523 556.44L229.353 556.44L229.353 534.36L320 534.36ZM320.904 485.555C320.904 492.184 319.828 498.124 317.676 503.375C315.524 508.626 312.338 512.844 308.12 516.03C303.902 519.129 298.823 520.764 292.883 520.936L292.883 497.435C296.241 497.091 298.823 495.929 300.631 493.949C302.353 491.969 303.213 489.386 303.213 486.201C303.213 482.93 302.482 480.347 301.018 478.453C299.469 476.56 297.36 475.613 294.691 475.613C292.453 475.613 290.602 476.387 289.139 477.937C287.675 479.4 286.47 481.251 285.523 483.489C284.576 485.642 283.5 488.741 282.295 492.787C280.487 498.64 278.679 503.418 276.871 507.12C275.064 510.821 272.395 514.007 268.866 516.675C265.336 519.344 260.73 520.678 255.049 520.678C246.613 520.678 240.027 517.622 235.292 511.51C230.472 505.398 228.061 497.435 228.061 487.621C228.061 477.636 230.472 469.587 235.292 463.475C240.027 457.363 246.656 454.091 255.178 453.661L255.178 477.55C252.251 477.722 249.97 478.798 248.334 480.778C246.613 482.758 245.752 485.297 245.752 488.396C245.752 491.065 246.483 493.217 247.947 494.853C249.324 496.488 251.347 497.306 254.016 497.306C256.943 497.306 259.224 495.929 260.86 493.174C262.495 490.419 264.26 486.115 266.154 480.261C268.134 474.407 270.028 469.673 271.835 466.057C273.643 462.356 276.269 459.17 279.712 456.502C283.156 453.833 287.589 452.499 293.012 452.499C298.177 452.499 302.869 453.833 307.087 456.502C311.305 459.084 314.663 462.872 317.159 467.865C319.656 472.858 320.904 478.755 320.904 485.555ZM274.547 442.655C265.594 442.655 257.631 440.718 250.659 436.844C243.6 432.97 238.133 427.59 234.259 420.703C230.299 413.73 228.32 405.854 228.32 397.073C228.32 386.312 231.16 377.101 236.842 369.44C242.524 361.778 250.271 356.656 260.085 354.073L260.085 378.349C256.297 380.157 253.413 382.74 251.433 386.097C249.453 389.368 248.463 393.113 248.463 397.331C248.463 404.132 250.831 409.641 255.565 413.859C260.3 418.078 266.627 420.187 274.547 420.187C282.467 420.187 288.794 418.078 293.529 413.859C298.264 409.641 300.631 404.132 300.631 397.331C300.631 393.113 299.641 389.368 297.661 386.097C295.681 382.74 292.797 380.157 289.009 378.349L289.009 354.073C298.823 356.656 306.571 361.778 312.252 369.44C317.848 377.101 320.646 386.312 320.646 397.073C320.646 405.854 318.709 413.73 314.835 420.703C310.875 427.59 305.409 432.97 298.436 436.844C291.463 440.718 283.5 442.655 274.547 442.655ZM229.353 318.471L320 318.471L320 340.551L229.353 340.551L229.353 318.471ZM247.043 280.388L265.379 280.388L265.379 250.818L282.424 250.818L282.424 280.388L302.31 280.388L302.31 246.944L320 246.944L320 302.469L229.353 302.469L229.353 246.944L247.043 246.944L247.043 280.388ZM320 151.517L320 173.598L264.088 210.528L320 210.528L320 232.609L229.353 232.609L229.353 210.528L285.523 173.598L229.353 173.598L229.353 151.517L320 151.517ZM274.547 139.256C265.594 139.256 257.631 137.319 250.659 133.445C243.6 129.571 238.133 124.191 234.259 117.304C230.299 110.331 228.319 102.455 228.319 93.6739C228.319 82.9133 231.16 73.7022 236.842 66.0406C242.524 58.3791 250.271 53.257 260.085 50.6745L260.085 74.9504C256.297 76.7582 253.413 79.3407 251.433 82.6981C249.453 85.9693 248.463 89.714 248.463 93.9322C248.463 100.733 250.831 106.242 255.565 110.46C260.3 114.679 266.627 116.788 274.547 116.788C282.467 116.788 288.794 114.679 293.529 110.46C298.264 106.242 300.631 100.733 300.631 93.9321C300.631 89.714 299.641 85.9693 297.661 82.6981C295.681 79.3407 292.797 76.7582 289.009 74.9504L289.009 50.6745C298.823 53.257 306.571 58.3791 312.252 66.0406C317.848 73.7022 320.646 82.9133 320.646 93.6739C320.646 102.455 318.709 110.331 314.835 117.304C310.875 124.191 305.409 129.571 298.436 133.445C291.463 137.319 283.5 139.256 274.547 139.256ZM247.043 15.0716L265.379 15.0716L265.379 -14.4986L282.424 -14.4986L282.424 15.0716L302.31 15.0716L302.31 -18.3724L320 -18.3724L320 37.1524L229.353 37.1524L229.353 -18.3724L247.043 -18.3724L247.043 15.0716Z" fill="#494949"/>
<path opacity="0.7" d="M431.261 486.547C431.261 477.594 433.198 469.631 437.072 462.659C440.946 455.6 446.326 450.133 453.213 446.259C460.186 442.299 468.063 440.32 476.843 440.32C487.604 440.32 496.815 443.16 504.476 448.842C512.138 454.524 517.26 462.271 519.843 472.085H495.567C493.759 468.297 491.176 465.413 487.819 463.433C484.548 461.453 480.803 460.463 476.585 460.463C469.784 460.463 464.275 462.831 460.057 467.565C455.838 472.3 453.729 478.627 453.729 486.547C453.729 494.467 455.838 500.794 460.057 505.529C464.275 510.264 469.784 512.631 476.585 512.631C480.803 512.631 484.548 511.641 487.819 509.661C491.176 507.681 493.759 504.797 495.567 501.009H519.843C517.26 510.823 512.138 518.571 504.476 524.252C496.815 529.848 487.604 532.646 476.843 532.646C468.063 532.646 460.186 530.709 453.213 526.835C446.326 522.875 440.946 517.409 437.072 510.436C433.198 503.463 431.261 495.5 431.261 486.547ZM576.235 532.904C567.713 532.904 559.879 530.924 552.734 526.964C545.675 523.004 540.036 517.495 535.818 510.436C531.686 503.291 529.62 495.285 529.62 486.418C529.62 477.551 531.686 469.588 535.818 462.529C540.036 455.47 545.675 449.961 552.734 446.001C559.879 442.041 567.713 440.061 576.235 440.061C584.757 440.061 592.548 442.041 599.607 446.001C606.752 449.961 612.348 455.47 616.394 462.529C620.526 469.588 622.592 477.551 622.592 486.418C622.592 495.285 620.526 503.291 616.394 510.436C612.262 517.495 606.666 523.004 599.607 526.964C592.548 530.924 584.757 532.904 576.235 532.904ZM576.235 512.76C583.466 512.76 589.234 510.35 593.538 505.529C597.928 500.708 600.124 494.338 600.124 486.418C600.124 478.412 597.928 472.042 593.538 467.307C589.234 462.486 583.466 460.076 576.235 460.076C568.918 460.076 563.064 462.443 558.674 467.178C554.369 471.913 552.217 478.326 552.217 486.418C552.217 494.424 554.369 500.837 558.674 505.658C563.064 510.393 568.918 512.76 576.235 512.76ZM715.968 532H693.887L656.957 476.088V532H634.876V441.353L656.957 441.353L693.887 497.523V441.353H715.968V532ZM764.772 532.904C758.144 532.904 752.204 531.828 746.953 529.676C741.701 527.524 737.483 524.338 734.298 520.12C731.199 515.902 729.563 510.823 729.391 504.883H752.892C753.237 508.241 754.399 510.823 756.379 512.631C758.359 514.353 760.941 515.213 764.126 515.213C767.398 515.213 769.98 514.482 771.874 513.018C773.768 511.469 774.715 509.36 774.715 506.691C774.715 504.453 773.94 502.602 772.391 501.139C770.927 499.675 769.076 498.47 766.838 497.523C764.686 496.576 761.587 495.5 757.541 494.295C751.687 492.487 746.91 490.679 743.208 488.871C739.506 487.064 736.321 484.395 733.652 480.866C730.984 477.336 729.649 472.731 729.649 467.049C729.649 458.613 732.705 452.027 738.818 447.292C744.93 442.472 752.892 440.061 762.706 440.061C772.692 440.061 780.741 442.472 786.853 447.292C792.965 452.027 796.236 458.656 796.667 467.178H772.778C772.606 464.251 771.53 461.97 769.55 460.334C767.57 458.613 765.03 457.752 761.931 457.752C759.263 457.752 757.111 458.483 755.475 459.947C753.839 461.324 753.022 463.347 753.022 466.016C753.022 468.943 754.399 471.224 757.154 472.86C759.908 474.495 764.213 476.26 770.066 478.154C775.92 480.134 780.655 482.028 784.27 483.835C787.972 485.643 791.157 488.269 793.826 491.712C796.494 495.156 797.829 499.589 797.829 505.012C797.829 510.177 796.494 514.869 793.826 519.087C791.243 523.305 787.456 526.663 782.463 529.159C777.47 531.656 771.573 532.904 764.772 532.904ZM807.673 486.547C807.673 477.594 809.61 469.631 813.483 462.659C817.357 455.6 822.738 450.133 829.624 446.259C836.597 442.299 844.474 440.32 853.255 440.32C864.015 440.32 873.226 443.16 880.888 448.842C888.55 454.524 893.672 462.271 896.254 472.085H871.978C870.17 468.297 867.588 465.413 864.231 463.433C860.959 461.453 857.215 460.463 852.996 460.463C846.196 460.463 840.686 462.831 836.468 467.565C832.25 472.3 830.141 478.627 830.141 486.547C830.141 494.467 832.25 500.794 836.468 505.529C840.686 510.264 846.196 512.631 852.996 512.631C857.215 512.631 860.959 511.641 864.231 509.661C867.588 507.681 870.17 504.797 871.978 501.009H896.254C893.672 510.823 888.55 518.571 880.888 524.252C873.226 529.848 864.015 532.646 853.255 532.646C844.474 532.646 836.597 530.709 829.624 526.835C822.738 522.875 817.357 517.409 813.483 510.436C809.61 503.463 807.673 495.5 807.673 486.547Z" fill="#494949"/>
<path opacity="0.7" d="M363.797 728.889L348.572 701.255H344.297V728.889H326.465V655.686H356.393C362.163 655.686 367.064 656.694 371.096 658.71C375.198 660.726 378.257 663.506 380.273 667.052C382.289 670.528 383.297 674.421 383.297 678.731C383.297 683.597 381.907 687.942 379.126 691.766C376.415 695.589 372.383 698.301 367.03 699.9L383.923 728.889H363.797ZM344.297 688.638H355.35C358.618 688.638 361.051 687.838 362.65 686.239C364.318 684.64 365.153 682.381 365.153 679.461C365.153 676.68 364.318 674.49 362.65 672.892C361.051 671.293 358.618 670.493 355.35 670.493H344.297V688.638ZM412.322 669.972V684.779H436.202V698.544H412.322V714.603H439.33V728.889H394.491V655.686H439.33V669.972H412.322ZM506.696 679.253C506.696 683.493 505.723 687.386 503.776 690.932C501.83 694.408 498.84 697.223 494.808 699.378C490.776 701.533 485.771 702.611 479.792 702.611H468.739V728.889H450.907V655.686H479.792C485.632 655.686 490.568 656.694 494.6 658.71C498.632 660.726 501.656 663.506 503.672 667.052C505.688 670.597 506.696 674.664 506.696 679.253ZM478.437 688.429C481.843 688.429 484.38 687.63 486.049 686.031C487.717 684.432 488.552 682.172 488.552 679.253C488.552 676.333 487.717 674.073 486.049 672.474C484.38 670.875 481.843 670.076 478.437 670.076H468.739V688.429H478.437ZM553.311 728.889L538.086 701.255H533.811V728.889H515.979V655.686H545.907C551.677 655.686 556.578 656.694 560.611 658.71C564.712 660.726 567.771 663.506 569.787 667.052C571.803 670.528 572.811 674.421 572.811 678.731C572.811 683.597 571.421 687.942 568.64 691.766C565.929 695.589 561.897 698.301 556.544 699.9L573.437 728.889H553.311ZM533.811 688.638H544.864C548.132 688.638 550.565 687.838 552.164 686.239C553.832 684.64 554.667 682.381 554.667 679.461C554.667 676.68 553.832 674.49 552.164 672.892C550.565 671.293 548.132 670.493 544.864 670.493H533.811V688.638ZM601.836 669.972V684.779H625.716V698.544H601.836V714.603H628.844V728.889H584.005V655.686H628.844V669.972H601.836ZM666.908 729.619C661.555 729.619 656.758 728.75 652.517 727.012C648.277 725.274 644.87 722.702 642.298 719.295C639.795 715.889 638.475 711.787 638.335 706.991H657.314C657.592 709.702 658.531 711.787 660.13 713.247C661.729 714.638 663.814 715.333 666.386 715.333C669.028 715.333 671.114 714.742 672.643 713.56C674.173 712.309 674.937 710.606 674.937 708.451C674.937 706.643 674.312 705.148 673.06 703.967C671.878 702.785 670.384 701.811 668.576 701.047C666.838 700.282 664.336 699.413 661.068 698.44C656.341 696.98 652.483 695.52 649.493 694.06C646.504 692.6 643.932 690.445 641.777 687.595C639.622 684.745 638.544 681.025 638.544 676.437C638.544 669.624 641.012 664.306 645.948 660.482C650.884 656.589 657.314 654.643 665.239 654.643C673.304 654.643 679.804 656.589 684.739 660.482C689.675 664.306 692.317 669.659 692.665 676.541H673.373C673.234 674.178 672.365 672.335 670.766 671.015C669.167 669.624 667.116 668.929 664.614 668.929C662.459 668.929 660.721 669.52 659.4 670.702C658.079 671.814 657.418 673.448 657.418 675.603C657.418 677.966 658.531 679.809 660.755 681.13C662.98 682.45 666.456 683.876 671.183 685.405C675.911 687.004 679.734 688.533 682.654 689.993C685.643 691.453 688.215 693.573 690.37 696.354C692.526 699.135 693.603 702.715 693.603 707.095C693.603 711.266 692.526 715.055 690.37 718.461C688.285 721.868 685.226 724.579 681.194 726.595C677.162 728.611 672.4 729.619 666.908 729.619ZM722.408 669.972V684.779H746.288V698.544H722.408V714.603H749.417V728.889H704.577V655.686L749.417 655.686V669.972H722.408ZM826.48 728.889H808.648L778.825 683.736V728.889L760.993 728.889V655.686H778.825L808.648 701.047V655.686H826.48V728.889ZM892.066 655.686V669.972H872.671V728.889H854.839V669.972H835.443V655.686H892.066ZM946.585 715.959H919.264L914.885 728.889H896.219L922.705 655.686H943.353L969.839 728.889H950.965L946.585 715.959ZM941.997 702.194L932.925 675.394L923.957 702.194H941.997ZM1030.56 655.686V669.972H1011.17V728.889H993.334V669.972H973.938V655.686H1030.56ZM1057.34 655.686V728.889H1039.51V655.686H1057.34ZM1104.89 729.619C1098 729.619 1091.68 728.02 1085.91 724.822C1080.21 721.624 1075.65 717.175 1072.25 711.475C1068.91 705.705 1067.24 699.239 1067.24 692.079C1067.24 684.918 1068.91 678.488 1072.25 672.787C1075.65 667.087 1080.21 662.637 1085.91 659.44C1091.68 656.242 1098 654.643 1104.89 654.643C1111.77 654.643 1118.06 656.242 1123.76 659.44C1129.53 662.637 1134.05 667.087 1137.32 672.787C1140.65 678.488 1142.32 684.918 1142.32 692.079C1142.32 699.239 1140.65 705.705 1137.32 711.475C1133.98 717.175 1129.46 721.624 1123.76 724.822C1118.06 728.02 1111.77 729.619 1104.89 729.619ZM1104.89 713.352C1110.72 713.352 1115.38 711.405 1118.86 707.512C1122.4 703.619 1124.18 698.475 1124.18 692.079C1124.18 685.614 1122.4 680.469 1118.86 676.646C1115.38 672.752 1110.72 670.806 1104.89 670.806C1098.98 670.806 1094.25 672.718 1090.7 676.541C1087.23 680.365 1085.49 685.544 1085.49 692.079C1085.49 698.544 1087.23 703.723 1090.7 707.616C1094.25 711.44 1098.98 713.352 1104.89 713.352ZM1217.73 728.889H1199.9L1170.07 683.736V728.889H1152.24V655.686H1170.07L1199.9 701.047V655.686H1217.73V728.889Z" fill="#494949"/>
<path opacity="0.7" d="M342.261 777.547C342.261 768.594 344.198 760.631 348.072 753.659C351.946 746.6 357.326 741.133 364.213 737.259C371.186 733.299 379.063 731.32 387.843 731.32C398.604 731.32 407.815 734.16 415.476 739.842C423.138 745.524 428.26 753.271 430.843 763.085H406.567C404.759 759.297 402.176 756.413 398.819 754.433C395.548 752.453 391.803 751.463 387.585 751.463C380.784 751.463 375.275 753.831 371.057 758.565C366.838 763.3 364.729 769.627 364.729 777.547C364.729 785.467 366.838 791.794 371.057 796.529C375.275 801.264 380.784 803.631 387.585 803.631C391.803 803.631 395.548 802.641 398.819 800.661C402.176 798.681 404.759 795.797 406.567 792.009H430.843C428.26 801.823 423.138 809.571 415.476 815.252C407.815 820.848 398.604 823.646 387.843 823.646C379.063 823.646 371.186 821.709 364.213 817.835C357.326 813.875 351.946 808.409 348.072 801.436C344.198 794.463 342.261 786.5 342.261 777.547ZM487.235 823.904C478.713 823.904 470.879 821.924 463.734 817.964C456.675 814.004 451.036 808.495 446.818 801.436C442.686 794.291 440.62 786.285 440.62 777.418C440.62 768.551 442.686 760.588 446.818 753.529C451.036 746.47 456.675 740.961 463.734 737.001C470.879 733.041 478.713 731.061 487.235 731.061C495.757 731.061 503.548 733.041 510.607 737.001C517.752 740.961 523.348 746.47 527.394 753.529C531.526 760.588 533.592 768.551 533.592 777.418C533.592 786.285 531.526 794.291 527.394 801.436C523.262 808.495 517.666 814.004 510.607 817.964C503.548 821.924 495.757 823.904 487.235 823.904ZM487.235 803.76C494.466 803.76 500.234 801.35 504.538 796.529C508.928 791.708 511.124 785.338 511.124 777.418C511.124 769.412 508.928 763.042 504.538 758.307C500.234 753.486 494.466 751.076 487.235 751.076C479.918 751.076 474.064 753.443 469.674 758.178C465.369 762.913 463.217 769.326 463.217 777.418C463.217 785.424 465.369 791.837 469.674 796.658C474.064 801.393 479.918 803.76 487.235 803.76ZM626.968 823H604.887L567.957 767.088V823H545.876V732.353H567.957L604.887 788.523V732.353H626.968V823ZM675.772 823.904C669.144 823.904 663.204 822.828 657.953 820.676C652.701 818.524 648.483 815.338 645.298 811.12C642.199 806.902 640.563 801.823 640.391 795.883H663.892C664.237 799.241 665.399 801.823 667.379 803.631C669.359 805.353 671.941 806.213 675.126 806.213C678.398 806.213 680.98 805.482 682.874 804.018C684.768 802.469 685.715 800.36 685.715 797.691C685.715 795.453 684.94 793.602 683.391 792.139C681.927 790.675 680.076 789.47 677.838 788.523C675.686 787.576 672.587 786.5 668.541 785.295C662.687 783.487 657.91 781.679 654.208 779.871C650.506 778.064 647.321 775.395 644.652 771.866C641.984 768.336 640.649 763.731 640.649 758.049C640.649 749.613 643.705 743.027 649.818 738.292C655.93 733.472 663.892 731.061 673.706 731.061C683.692 731.061 691.741 733.472 697.853 738.292C703.965 743.027 707.236 749.656 707.667 758.178H683.778C683.606 755.251 682.53 752.97 680.55 751.334C678.57 749.613 676.03 748.752 672.931 748.752C670.263 748.752 668.111 749.483 666.475 750.947C664.839 752.324 664.022 754.347 664.022 757.016C664.022 759.943 665.399 762.224 668.154 763.86C670.908 765.495 675.213 767.26 681.066 769.154C686.92 771.134 691.655 773.028 695.27 774.835C698.972 776.643 702.157 779.269 704.826 782.712C707.494 786.156 708.829 790.589 708.829 796.012C708.829 801.177 707.494 805.869 704.826 810.087C702.243 814.305 698.456 817.663 693.463 820.159C688.47 822.656 682.573 823.904 675.772 823.904ZM718.673 777.547C718.673 768.594 720.61 760.631 724.483 753.659C728.357 746.6 733.738 741.133 740.624 737.259C747.597 733.299 755.474 731.32 764.255 731.32C775.015 731.32 784.226 734.16 791.888 739.842C799.55 745.524 804.672 753.271 807.254 763.085H782.978C781.17 759.297 778.588 756.413 775.231 754.433C771.959 752.453 768.215 751.463 763.996 751.463C757.196 751.463 751.686 753.831 747.468 758.565C743.25 763.3 741.141 769.627 741.141 777.547C741.141 785.467 743.25 791.794 747.468 796.529C751.686 801.264 757.196 803.631 763.996 803.631C768.215 803.631 771.959 802.641 775.231 800.661C778.588 798.681 781.17 795.797 782.978 792.009H807.254C804.672 801.823 799.55 809.571 791.888 815.252C784.226 820.848 775.015 823.646 764.255 823.646C755.474 823.646 747.597 821.709 740.624 817.835C733.738 813.875 728.357 808.409 724.483 801.436C720.61 794.463 718.673 786.5 718.673 777.547ZM842.857 732.353V823H820.776V732.353H842.857ZM880.939 750.043V768.379H910.51V785.424H880.939V805.31H914.383V823H858.859V732.353H914.383V750.043H880.939ZM1009.81 823H987.73L950.799 767.088V823H928.719V732.353H950.799L987.73 788.523V732.353H1009.81V823ZM1022.07 777.547C1022.07 768.594 1024.01 760.631 1027.88 753.659C1031.76 746.6 1037.14 741.133 1044.02 737.259C1051 733.299 1058.87 731.32 1067.65 731.32C1078.41 731.32 1087.63 734.16 1095.29 739.842C1102.95 745.524 1108.07 753.271 1110.65 763.085H1086.38C1084.57 759.297 1081.99 756.413 1078.63 754.433C1075.36 752.453 1071.61 751.463 1067.4 751.463C1060.59 751.463 1055.09 753.831 1050.87 758.565C1046.65 763.3 1044.54 769.627 1044.54 777.547C1044.54 785.467 1046.65 791.794 1050.87 796.529C1055.09 801.264 1060.59 803.631 1067.4 803.631C1071.61 803.631 1075.36 802.641 1078.63 800.661C1081.99 798.681 1084.57 795.797 1086.38 792.009H1110.65C1108.07 801.823 1102.95 809.571 1095.29 815.252C1087.63 820.848 1078.41 823.646 1067.65 823.646C1058.87 823.646 1051 821.709 1044.02 817.835C1037.14 813.875 1031.76 808.409 1027.88 801.436C1024.01 794.463 1022.07 786.5 1022.07 777.547ZM1146.26 750.043V768.379H1175.83V785.424H1146.26V805.31H1179.7V823H1124.18V732.353H1179.7V750.043H1146.26Z" fill="#494949"/>
</g>
<defs>
<clipPath id="clip0_89_167">
<rect width="1440" height="1024" fill="white"/>
</clipPath>
</defs>
</svg>
