<svg width="1440" height="4743" viewBox="0 0 1440 4743" fill="none" xmlns="http://www.w3.org/2000/svg">
<g clip-path="url(#clip0_236_239)">
<rect width="1440" height="4743" fill="#222222"/>
<path opacity="0.7" d="M51.0794 2418.39C60.385 2418.39 68.9277 2420.53 76.7078 2424.8C84.3353 2429.07 90.5135 2435.63 95.2426 2444.48C99.9716 2453.33 102.336 2464.31 102.336 2477.43L102.336 2501.68L160 2501.68L160 2540.81L-0.634981 2540.81L-0.634981 2477.43C-0.63498 2464.61 1.57699 2453.78 6.00093 2444.94C10.4249 2436.09 16.5269 2429.45 24.3069 2425.03C32.087 2420.6 41.0111 2418.39 51.0794 2418.39ZM71.216 2480.4C71.216 2472.93 69.4617 2467.36 65.953 2463.7C62.4444 2460.04 57.4865 2458.21 51.0794 2458.21C44.6723 2458.21 39.7145 2460.04 36.2058 2463.7C32.6972 2467.36 30.9428 2472.93 30.9428 2480.4L30.9428 2501.68L71.216 2501.68L71.216 2480.4ZM131.626 2298.02L131.626 2357.98L160 2367.59L160 2408.55L-0.634979 2350.43L-0.634979 2305.12L160 2247L160 2288.41L131.626 2298.02ZM101.421 2308.09L42.6129 2328L101.421 2347.68L101.421 2308.09ZM160 2147.39L99.3614 2180.8L99.3614 2190.18L160 2190.18L160 2229.31L-0.634978 2229.31L-0.634977 2163.63C-0.634977 2150.97 1.57699 2140.22 6.00094 2131.37C10.4249 2122.37 16.5269 2115.66 24.3069 2111.23C31.9344 2106.81 40.4772 2104.6 49.9353 2104.6C60.6138 2104.6 70.1481 2107.65 78.5384 2113.75C86.9286 2119.7 92.8781 2128.55 96.3867 2140.29L160 2103.22L160 2147.39ZM71.6736 2190.18L71.6736 2165.92C71.6736 2158.75 69.9193 2153.41 66.4107 2149.91C62.902 2146.24 57.9442 2144.41 51.5371 2144.41C45.4351 2144.41 40.6298 2146.24 37.1211 2149.91C33.6125 2153.41 31.8581 2158.75 31.8581 2165.92L31.8581 2190.18L71.6736 2190.18ZM-0.634975 2040.91L160 2040.91L160 2080.03L-0.634976 2080.03L-0.634975 2040.91ZM-0.634974 1896.99L30.714 1896.99L30.714 1939.55L160 1939.55L160 1978.68L30.714 1978.68L30.714 2021.24L-0.634975 2021.24L-0.634974 1896.99ZM30.714 1838.23L63.2071 1838.23L63.2071 1785.83L93.412 1785.83L93.412 1838.23L128.651 1838.23L128.651 1778.96L160 1778.96L160 1877.36L-0.634973 1877.36L-0.634972 1778.96L30.714 1778.96L30.714 1838.23ZM-32.8993 1802.53L-9.78797 1857.68L-36.7893 1857.68L-63.333 1802.53L-32.8993 1802.53ZM-0.63497 1565.94L160 1565.94L160 1605.07L93.8697 1605.07L93.8697 1665.94L160 1665.94L160 1705.07L-0.634971 1705.07L-0.634971 1665.94L62.2918 1665.94L62.2918 1605.07L-0.63497 1605.07L-0.63497 1565.94ZM161.602 1461.72C161.602 1476.83 158.093 1490.71 151.076 1503.37C144.059 1515.88 134.295 1525.87 121.786 1533.35C109.125 1540.67 94.9375 1544.33 79.2249 1544.33C63.5122 1544.33 49.4014 1540.67 36.8923 1533.35C24.3832 1525.87 14.62 1515.88 7.60273 1503.37C0.585432 1490.71 -2.92321 1476.83 -2.92321 1461.72C-2.92321 1446.62 0.585433 1432.82 7.60273 1420.31C14.62 1407.64 24.3832 1397.73 36.8923 1390.56C49.4014 1383.24 63.5122 1379.58 79.2249 1379.58C94.9375 1379.58 109.125 1383.24 121.786 1390.56C134.295 1397.88 144.059 1407.8 151.076 1420.31C158.093 1432.82 161.602 1446.62 161.602 1461.72ZM125.905 1461.72C125.905 1448.91 121.634 1438.69 113.091 1431.06C104.548 1423.28 93.2595 1419.39 79.2249 1419.39C65.0377 1419.39 53.749 1423.28 45.3588 1431.06C36.816 1438.69 32.5446 1448.91 32.5446 1461.72C32.5446 1474.69 36.7397 1485.06 45.13 1492.84C53.5202 1500.47 64.8852 1504.29 79.2249 1504.29C93.412 1504.29 104.777 1500.47 113.32 1492.84C121.71 1485.06 125.905 1474.69 125.905 1461.72ZM-0.634965 1175.89L160 1175.89L160 1215.02L63.6648 1215.02L160 1250.95L160 1282.52L63.436 1318.68L160 1318.68L160 1357.81L-0.634967 1357.81L-0.634967 1311.58L110.574 1266.51L-0.634966 1221.88L-0.634965 1175.89ZM-0.634963 965.837L160 965.837L160 1004.97L63.6648 1004.97L160 1040.89L160 1072.47L63.436 1108.62L160 1108.62L160 1147.75L-0.634965 1147.75L-0.634964 1101.53L110.574 1056.45L-0.634963 1011.83L-0.634963 965.837ZM30.714 898.57L63.2071 898.57L63.2071 846.169L93.412 846.169L93.412 898.57L128.651 898.57L128.651 839.304L160 839.304L160 937.699L-0.634962 937.699L-0.634961 839.304L30.714 839.304L30.714 898.57ZM-0.634959 660.837L30.714 660.837L30.714 726.281L64.5801 726.281L64.5801 677.312L95.0138 677.312L95.0138 726.281L160 726.281L160 765.41L-0.63496 765.41L-0.634959 660.837ZM30.714 601.142L63.2072 601.142L63.2072 548.741L93.412 548.741L93.412 601.142L128.651 601.142L128.651 541.877L160 541.877L160 640.271L-0.634959 640.271L-0.634957 541.877L30.714 541.877L30.714 601.142ZM-0.634955 334.558L160 334.558L160 373.687L63.6648 373.687L160 409.612L160 441.19L63.436 477.345L160 477.345L160 516.474L-0.634957 516.474L-0.634957 470.251L110.574 425.173L-0.634956 380.552L-0.634955 334.558ZM-0.634953 124.504L160 124.504L160 163.633L63.6648 163.633L160 199.558L160 231.136L63.436 267.291L160 267.291L160 306.42L-0.634955 306.42L-0.634954 260.197L110.574 215.118L-0.634953 170.498L-0.634953 124.504ZM30.714 57.2366L63.2072 57.2366L63.2072 4.8357L93.412 4.8357L93.412 57.2366L128.651 57.2366L128.651 -2.02904L160 -2.02904L160 96.3656L-0.634952 96.3656L-0.634951 -2.02904L30.714 -2.02904L30.714 57.2366Z" fill="#535353"/>
<path opacity="0.7" d="M1389.25 2411.39C1379.95 2411.39 1371.4 2413.53 1363.62 2417.8C1356 2422.07 1349.82 2428.63 1345.09 2437.48C1340.36 2446.33 1338 2457.31 1338 2470.43L1338 2494.68L1280.33 2494.68L1280.33 2533.81L1440.97 2533.81L1440.97 2470.43C1440.97 2457.61 1438.76 2446.78 1434.33 2437.94C1429.91 2429.09 1423.81 2422.45 1416.03 2418.03C1408.25 2413.6 1399.32 2411.39 1389.25 2411.39ZM1369.12 2473.4C1369.12 2465.93 1370.87 2460.36 1374.38 2456.7C1377.89 2453.04 1382.85 2451.21 1389.25 2451.21C1395.66 2451.21 1400.62 2453.04 1404.13 2456.7C1407.63 2460.36 1409.39 2465.93 1409.39 2473.4L1409.39 2494.68L1369.12 2494.68L1369.12 2473.4ZM1308.71 2291.02L1308.71 2350.98L1280.33 2360.59L1280.33 2401.55L1440.97 2343.43L1440.97 2298.12L1280.33 2240L1280.33 2281.41L1308.71 2291.02ZM1338.91 2301.09L1397.72 2321L1338.91 2340.68L1338.91 2301.09ZM1280.33 2140.39L1340.97 2173.8L1340.97 2183.18L1280.33 2183.18L1280.33 2222.31L1440.97 2222.31L1440.97 2156.63C1440.97 2143.97 1438.76 2133.22 1434.33 2124.37C1429.91 2115.37 1423.81 2108.66 1416.03 2104.23C1408.4 2099.81 1399.85 2097.6 1390.4 2097.6C1379.72 2097.6 1370.18 2100.65 1361.79 2106.75C1353.4 2112.7 1347.45 2121.55 1343.95 2133.29L1280.33 2096.22L1280.33 2140.39ZM1368.66 2183.18L1368.66 2158.92C1368.66 2151.75 1370.41 2146.41 1373.92 2142.91C1377.43 2139.24 1382.39 2137.41 1388.79 2137.41C1394.9 2137.41 1399.7 2139.24 1403.21 2142.91C1406.72 2146.41 1408.47 2151.75 1408.47 2158.92L1408.47 2183.18L1368.66 2183.18ZM1440.97 2033.91L1280.33 2033.91L1280.33 2073.03L1440.97 2073.03L1440.97 2033.91ZM1440.97 1889.99L1409.62 1889.99L1409.62 1932.55L1280.33 1932.55L1280.33 1971.68L1409.62 1971.68L1409.62 2014.24L1440.97 2014.24L1440.97 1889.99ZM1409.62 1831.23L1377.12 1831.23L1377.12 1778.83L1346.92 1778.83L1346.92 1831.23L1311.68 1831.23L1311.68 1771.96L1280.33 1771.96L1280.33 1870.36L1440.97 1870.36L1440.97 1771.96L1409.62 1771.96L1409.62 1831.23ZM1473.23 1795.53L1450.12 1850.68L1477.12 1850.68L1503.66 1795.53L1473.23 1795.53ZM1440.97 1558.94L1280.33 1558.94L1280.33 1598.07L1346.46 1598.07L1346.46 1658.94L1280.33 1658.94L1280.33 1698.07L1440.97 1698.07L1440.97 1658.94L1378.04 1658.94L1378.04 1598.07L1440.97 1598.07L1440.97 1558.94ZM1278.73 1454.72C1278.73 1469.83 1282.24 1483.71 1289.26 1496.37C1296.27 1508.88 1306.04 1518.87 1318.55 1526.35C1331.21 1533.67 1345.39 1537.33 1361.11 1537.33C1376.82 1537.33 1390.93 1533.67 1403.44 1526.35C1415.95 1518.87 1425.71 1508.88 1432.73 1496.37C1439.75 1483.71 1443.26 1469.83 1443.26 1454.72C1443.26 1439.62 1439.75 1425.82 1432.73 1413.31C1425.71 1400.64 1415.95 1390.73 1403.44 1383.56C1390.93 1376.24 1376.82 1372.58 1361.11 1372.58C1345.39 1372.58 1331.21 1376.24 1318.55 1383.56C1306.04 1390.88 1296.27 1400.8 1289.26 1413.31C1282.24 1425.82 1278.73 1439.62 1278.73 1454.72ZM1314.43 1454.72C1314.43 1441.91 1318.7 1431.69 1327.24 1424.06C1335.78 1416.28 1347.07 1412.39 1361.11 1412.39C1375.29 1412.39 1386.58 1416.28 1394.97 1424.06C1403.52 1431.69 1407.79 1441.91 1407.79 1454.72C1407.79 1467.69 1403.59 1478.06 1395.2 1485.84C1386.81 1493.47 1375.45 1497.29 1361.11 1497.29C1346.92 1497.29 1335.56 1493.47 1327.01 1485.84C1318.62 1478.06 1314.43 1467.69 1314.43 1454.72ZM1440.97 1168.89L1280.33 1168.89L1280.33 1208.02L1376.67 1208.02L1280.33 1243.95L1280.33 1275.52L1376.9 1311.68L1280.33 1311.68L1280.33 1350.81L1440.97 1350.81L1440.97 1304.58L1329.76 1259.51L1440.97 1214.88L1440.97 1168.89ZM1440.97 958.837L1280.33 958.837L1280.33 997.966L1376.67 997.966L1280.33 1033.89L1280.33 1065.47L1376.9 1101.62L1280.33 1101.62L1280.33 1140.75L1440.97 1140.75L1440.97 1094.53L1329.76 1049.45L1440.97 1004.83L1440.97 958.837ZM1409.62 891.57L1377.12 891.57L1377.12 839.169L1346.92 839.169L1346.92 891.57L1311.68 891.57L1311.68 832.304L1280.33 832.304L1280.33 930.699L1440.97 930.699L1440.97 832.304L1409.62 832.304L1409.62 891.57ZM1440.97 653.837L1409.62 653.837L1409.62 719.281L1375.75 719.281L1375.75 670.312L1345.32 670.312L1345.32 719.281L1280.33 719.281L1280.33 758.41L1440.97 758.41L1440.97 653.837ZM1409.62 594.142L1377.12 594.142L1377.12 541.741L1346.92 541.741L1346.92 594.142L1311.68 594.142L1311.68 534.877L1280.33 534.877L1280.33 633.271L1440.97 633.271L1440.97 534.877L1409.62 534.877L1409.62 594.142ZM1440.97 327.558L1280.33 327.558L1280.33 366.687L1376.67 366.687L1280.33 402.612L1280.33 434.19L1376.9 470.345L1280.33 470.345L1280.33 509.474L1440.97 509.474L1440.97 463.251L1329.76 418.173L1440.97 373.552L1440.97 327.558ZM1440.97 117.504L1280.33 117.504L1280.33 156.633L1376.67 156.633L1280.33 192.558L1280.33 224.136L1376.9 260.291L1280.33 260.291L1280.33 299.42L1440.97 299.42L1440.97 253.197L1329.76 208.118L1440.97 163.498L1440.97 117.504ZM1409.62 50.2366L1377.12 50.2366L1377.12 -2.1643L1346.92 -2.1643L1346.92 50.2366L1311.68 50.2366L1311.68 -9.02904L1280.33 -9.02904L1280.33 89.3656L1440.97 89.3656L1440.97 -9.02904L1409.62 -9.02904L1409.62 50.2366Z" fill="#535353"/>
<path opacity="0.7" d="M51.0794 5134.39C60.385 5134.39 68.9277 5136.53 76.7078 5140.8C84.3353 5145.07 90.5135 5151.63 95.2426 5160.48C99.9716 5169.33 102.336 5180.31 102.336 5193.43L102.336 5217.68L160 5217.68L160 5256.81L-0.634981 5256.81L-0.634981 5193.43C-0.63498 5180.61 1.57699 5169.78 6.00093 5160.94C10.4249 5152.09 16.5269 5145.45 24.3069 5141.03C32.087 5136.6 41.0111 5134.39 51.0794 5134.39ZM71.216 5196.4C71.216 5188.93 69.4617 5183.36 65.953 5179.7C62.4444 5176.04 57.4865 5174.21 51.0794 5174.21C44.6723 5174.21 39.7145 5176.04 36.2058 5179.7C32.6972 5183.36 30.9428 5188.93 30.9428 5196.4L30.9428 5217.68L71.216 5217.68L71.216 5196.4ZM131.626 5014.02L131.626 5073.98L160 5083.59L160 5124.55L-0.634979 5066.43L-0.634979 5021.12L160 4963L160 5004.41L131.626 5014.02ZM101.421 5024.09L42.6129 5044L101.421 5063.68L101.421 5024.09ZM160 4863.39L99.3614 4896.8L99.3614 4906.18L160 4906.18L160 4945.31L-0.634978 4945.31L-0.634977 4879.63C-0.634977 4866.97 1.57699 4856.22 6.00094 4847.37C10.4249 4838.37 16.5269 4831.66 24.3069 4827.23C31.9344 4822.81 40.4772 4820.6 49.9353 4820.6C60.6138 4820.6 70.1481 4823.65 78.5384 4829.75C86.9286 4835.7 92.8781 4844.55 96.3867 4856.29L160 4819.22L160 4863.39ZM71.6736 4906.18L71.6736 4881.92C71.6736 4874.75 69.9193 4869.41 66.4107 4865.91C62.902 4862.24 57.9442 4860.41 51.5371 4860.41C45.4351 4860.41 40.6298 4862.24 37.1211 4865.91C33.6125 4869.41 31.8581 4874.75 31.8581 4881.92L31.8581 4906.18L71.6736 4906.18ZM-0.634975 4756.91L160 4756.91L160 4796.03L-0.634976 4796.03L-0.634975 4756.91ZM-0.634974 4612.99L30.714 4612.99L30.714 4655.55L160 4655.55L160 4694.68L30.714 4694.68L30.714 4737.24L-0.634975 4737.24L-0.634974 4612.99ZM30.714 4554.23L63.2071 4554.23L63.2071 4501.83L93.412 4501.83L93.412 4554.23L128.651 4554.23L128.651 4494.96L160 4494.96L160 4593.36L-0.634973 4593.36L-0.634972 4494.96L30.714 4494.96L30.714 4554.23ZM-32.8993 4518.53L-9.78797 4573.68L-36.7893 4573.68L-63.333 4518.53L-32.8993 4518.53ZM-0.63497 4281.94L160 4281.94L160 4321.07L93.8697 4321.07L93.8697 4381.94L160 4381.94L160 4421.07L-0.634971 4421.07L-0.634971 4381.94L62.2918 4381.94L62.2918 4321.07L-0.63497 4321.07L-0.63497 4281.94ZM161.602 4177.72C161.602 4192.83 158.093 4206.71 151.076 4219.37C144.059 4231.88 134.295 4241.87 121.786 4249.35C109.125 4256.67 94.9375 4260.33 79.2249 4260.33C63.5122 4260.33 49.4014 4256.67 36.8923 4249.35C24.3832 4241.87 14.62 4231.88 7.60273 4219.37C0.585432 4206.71 -2.92321 4192.83 -2.92321 4177.72C-2.92321 4162.62 0.585433 4148.82 7.60273 4136.31C14.62 4123.64 24.3832 4113.73 36.8923 4106.56C49.4014 4099.24 63.5122 4095.58 79.2249 4095.58C94.9375 4095.58 109.125 4099.24 121.786 4106.56C134.295 4113.88 144.059 4123.8 151.076 4136.31C158.093 4148.82 161.602 4162.62 161.602 4177.72ZM125.905 4177.72C125.905 4164.91 121.634 4154.69 113.091 4147.06C104.548 4139.28 93.2595 4135.39 79.2249 4135.39C65.0377 4135.39 53.749 4139.28 45.3588 4147.06C36.816 4154.69 32.5446 4164.91 32.5446 4177.72C32.5446 4190.69 36.7397 4201.06 45.13 4208.84C53.5202 4216.47 64.8852 4220.29 79.2249 4220.29C93.412 4220.29 104.777 4216.47 113.32 4208.84C121.71 4201.06 125.905 4190.69 125.905 4177.72ZM-0.634965 3891.89L160 3891.89L160 3931.02L63.6648 3931.02L160 3966.95L160 3998.52L63.436 4034.68L160 4034.68L160 4073.81L-0.634967 4073.81L-0.634967 4027.58L110.574 3982.51L-0.634966 3937.88L-0.634965 3891.89ZM-0.634963 3681.84L160 3681.84L160 3720.97L63.6648 3720.97L160 3756.89L160 3788.47L63.436 3824.62L160 3824.62L160 3863.75L-0.634965 3863.75L-0.634964 3817.53L110.574 3772.45L-0.634963 3727.83L-0.634963 3681.84ZM30.714 3614.57L63.2071 3614.57L63.2071 3562.17L93.412 3562.17L93.412 3614.57L128.651 3614.57L128.651 3555.3L160 3555.3L160 3653.7L-0.634962 3653.7L-0.634961 3555.3L30.714 3555.3L30.714 3614.57ZM-0.634959 3376.84L30.714 3376.84L30.714 3442.28L64.5801 3442.28L64.5801 3393.31L95.0138 3393.31L95.0138 3442.28L160 3442.28L160 3481.41L-0.63496 3481.41L-0.634959 3376.84ZM30.714 3317.14L63.2072 3317.14L63.2072 3264.74L93.412 3264.74L93.412 3317.14L128.651 3317.14L128.651 3257.88L160 3257.88L160 3356.27L-0.634959 3356.27L-0.634957 3257.88L30.714 3257.88L30.714 3317.14ZM-0.634955 3050.56L160 3050.56L160 3089.69L63.6648 3089.69L160 3125.61L160 3157.19L63.436 3193.34L160 3193.34L160 3232.47L-0.634957 3232.47L-0.634957 3186.25L110.574 3141.17L-0.634956 3096.55L-0.634955 3050.56ZM-0.634953 2840.5L160 2840.5L160 2879.63L63.6648 2879.63L160 2915.56L160 2947.14L63.436 2983.29L160 2983.29L160 3022.42L-0.634955 3022.42L-0.634954 2976.2L110.574 2931.12L-0.634953 2886.5L-0.634953 2840.5ZM30.714 2773.24L63.2072 2773.24L63.2072 2720.84L93.412 2720.84L93.412 2773.24L128.651 2773.24L128.651 2713.97L160 2713.97L160 2812.37L-0.634952 2812.37L-0.634951 2713.97L30.714 2713.97L30.714 2773.24Z" fill="#535353"/>
<path opacity="0.7" d="M1385.25 5134.39C1375.95 5134.39 1367.4 5136.53 1359.62 5140.8C1352 5145.07 1345.82 5151.63 1341.09 5160.48C1336.36 5169.33 1334 5180.31 1334 5193.43L1334 5217.68L1276.33 5217.68L1276.33 5256.81L1436.97 5256.81L1436.97 5193.43C1436.97 5180.61 1434.76 5169.78 1430.33 5160.94C1425.91 5152.09 1419.81 5145.45 1412.03 5141.03C1404.25 5136.6 1395.32 5134.39 1385.25 5134.39ZM1365.12 5196.4C1365.12 5188.93 1366.87 5183.36 1370.38 5179.7C1373.89 5176.04 1378.85 5174.21 1385.25 5174.21C1391.66 5174.21 1396.62 5176.04 1400.13 5179.7C1403.63 5183.36 1405.39 5188.93 1405.39 5196.4L1405.39 5217.68L1365.12 5217.68L1365.12 5196.4ZM1304.71 5014.02L1304.71 5073.98L1276.33 5083.59L1276.33 5124.55L1436.97 5066.43L1436.97 5021.12L1276.33 4963L1276.33 5004.41L1304.71 5014.02ZM1334.91 5024.09L1393.72 5044L1334.91 5063.68L1334.91 5024.09ZM1276.33 4863.39L1336.97 4896.8L1336.97 4906.18L1276.33 4906.18L1276.33 4945.31L1436.97 4945.31L1436.97 4879.63C1436.97 4866.97 1434.76 4856.22 1430.33 4847.37C1425.91 4838.37 1419.81 4831.66 1412.03 4827.23C1404.4 4822.81 1395.85 4820.6 1386.4 4820.6C1375.72 4820.6 1366.18 4823.65 1357.79 4829.75C1349.4 4835.7 1343.45 4844.55 1339.95 4856.29L1276.33 4819.22L1276.33 4863.39ZM1364.66 4906.18L1364.66 4881.92C1364.66 4874.75 1366.41 4869.41 1369.92 4865.91C1373.43 4862.24 1378.39 4860.41 1384.79 4860.41C1390.9 4860.41 1395.7 4862.24 1399.21 4865.91C1402.72 4869.41 1404.47 4874.75 1404.47 4881.92L1404.47 4906.18L1364.66 4906.18ZM1436.97 4756.91L1276.33 4756.91L1276.33 4796.03L1436.97 4796.03L1436.97 4756.91ZM1436.97 4612.99L1405.62 4612.99L1405.62 4655.55L1276.33 4655.55L1276.33 4694.68L1405.62 4694.68L1405.62 4737.24L1436.97 4737.24L1436.97 4612.99ZM1405.62 4554.23L1373.12 4554.23L1373.12 4501.83L1342.92 4501.83L1342.92 4554.23L1307.68 4554.23L1307.68 4494.96L1276.33 4494.96L1276.33 4593.36L1436.97 4593.36L1436.97 4494.96L1405.62 4494.96L1405.62 4554.23ZM1469.23 4518.53L1446.12 4573.68L1473.12 4573.68L1499.66 4518.53L1469.23 4518.53ZM1436.97 4281.94L1276.33 4281.94L1276.33 4321.07L1342.46 4321.07L1342.46 4381.94L1276.33 4381.94L1276.33 4421.07L1436.97 4421.07L1436.97 4381.94L1374.04 4381.94L1374.04 4321.07L1436.97 4321.07L1436.97 4281.94ZM1274.73 4177.72C1274.73 4192.83 1278.24 4206.71 1285.26 4219.37C1292.27 4231.88 1302.04 4241.87 1314.55 4249.35C1327.21 4256.67 1341.39 4260.33 1357.11 4260.33C1372.82 4260.33 1386.93 4256.67 1399.44 4249.35C1411.95 4241.87 1421.71 4231.88 1428.73 4219.37C1435.75 4206.71 1439.26 4192.83 1439.26 4177.72C1439.26 4162.62 1435.75 4148.82 1428.73 4136.31C1421.71 4123.64 1411.95 4113.73 1399.44 4106.56C1386.93 4099.24 1372.82 4095.58 1357.11 4095.58C1341.39 4095.58 1327.21 4099.24 1314.55 4106.56C1302.04 4113.88 1292.27 4123.8 1285.26 4136.31C1278.24 4148.82 1274.73 4162.62 1274.73 4177.72ZM1310.43 4177.72C1310.43 4164.91 1314.7 4154.69 1323.24 4147.06C1331.78 4139.28 1343.07 4135.39 1357.11 4135.39C1371.29 4135.39 1382.58 4139.28 1390.97 4147.06C1399.52 4154.69 1403.79 4164.91 1403.79 4177.72C1403.79 4190.69 1399.59 4201.06 1391.2 4208.84C1382.81 4216.47 1371.45 4220.29 1357.11 4220.29C1342.92 4220.29 1331.56 4216.47 1323.01 4208.84C1314.62 4201.06 1310.43 4190.69 1310.43 4177.72ZM1436.97 3891.89L1276.33 3891.89L1276.33 3931.02L1372.67 3931.02L1276.33 3966.95L1276.33 3998.52L1372.9 4034.68L1276.33 4034.68L1276.33 4073.81L1436.97 4073.81L1436.97 4027.58L1325.76 3982.51L1436.97 3937.88L1436.97 3891.89ZM1436.97 3681.84L1276.33 3681.84L1276.33 3720.97L1372.67 3720.97L1276.33 3756.89L1276.33 3788.47L1372.9 3824.62L1276.33 3824.62L1276.33 3863.75L1436.97 3863.75L1436.97 3817.53L1325.76 3772.45L1436.97 3727.83L1436.97 3681.84ZM1405.62 3614.57L1373.12 3614.57L1373.12 3562.17L1342.92 3562.17L1342.92 3614.57L1307.68 3614.57L1307.68 3555.3L1276.33 3555.3L1276.33 3653.7L1436.97 3653.7L1436.97 3555.3L1405.62 3555.3L1405.62 3614.57ZM1436.97 3376.84L1405.62 3376.84L1405.62 3442.28L1371.75 3442.28L1371.75 3393.31L1341.32 3393.31L1341.32 3442.28L1276.33 3442.28L1276.33 3481.41L1436.97 3481.41L1436.97 3376.84ZM1405.62 3317.14L1373.12 3317.14L1373.12 3264.74L1342.92 3264.74L1342.92 3317.14L1307.68 3317.14L1307.68 3257.88L1276.33 3257.88L1276.33 3356.27L1436.97 3356.27L1436.97 3257.88L1405.62 3257.88L1405.62 3317.14ZM1436.97 3050.56L1276.33 3050.56L1276.33 3089.69L1372.67 3089.69L1276.33 3125.61L1276.33 3157.19L1372.9 3193.34L1276.33 3193.34L1276.33 3232.47L1436.97 3232.47L1436.97 3186.25L1325.76 3141.17L1436.97 3096.55L1436.97 3050.56ZM1436.97 2840.5L1276.33 2840.5L1276.33 2879.63L1372.67 2879.63L1276.33 2915.56L1276.33 2947.14L1372.9 2983.29L1276.33 2983.29L1276.33 3022.42L1436.97 3022.42L1436.97 2976.2L1325.76 2931.12L1436.97 2886.5L1436.97 2840.5ZM1405.62 2773.24L1373.12 2773.24L1373.12 2720.84L1342.92 2720.84L1342.92 2773.24L1307.68 2773.24L1307.68 2713.97L1276.33 2713.97L1276.33 2812.37L1436.97 2812.37L1436.97 2713.97L1405.62 2713.97L1405.62 2773.24Z" fill="#535353"/>
</g>
<defs>
<clipPath id="clip0_236_239">
<rect width="1440" height="4743" fill="white"/>
</clipPath>
</defs>
</svg>
